<svg width="149" height="73" viewBox="0 0 149 73" fill="none" xmlns="http://www.w3.org/2000/svg">
<g clip-path="url(#clip0_3010_28952)">
<g clip-path="url(#clip1_3010_28952)">
<path d="M104.926 28.1614C102.531 28.1614 100.423 29.1556 98.8747 30.7111C93.1747 26.7503 85.4949 24.2006 76.9848 23.928L81.4075 3.91556L95.4898 7.09061C95.4898 10.5543 98.2999 13.3766 101.749 13.3766C105.261 13.3766 108.087 10.4741 108.087 7.01043C108.087 3.54674 105.277 0.644287 101.749 0.644287C99.2898 0.644287 97.1663 2.1356 96.1125 4.17213L80.5613 0.70843C79.7789 0.499966 79.0125 1.06121 78.805 1.84696L73.9512 23.912C65.505 24.2648 57.905 26.8144 52.189 30.7752C50.6403 29.1556 48.4529 28.1614 46.0579 28.1614C37.1806 28.1614 34.2747 40.124 42.4016 44.2131C42.1142 45.4799 41.9865 46.8269 41.9865 48.1739C41.9865 61.6118 57.0587 72.5 75.5638 72.5C94.1487 72.5 109.221 61.6118 109.221 48.1739C109.221 46.8269 109.077 45.4158 108.726 44.149C116.693 40.0438 113.755 28.1614 104.926 28.1614ZM55.2865 45.063C55.2865 41.5351 58.0966 38.6968 61.6251 38.6968C65.0739 38.6968 67.884 41.5191 67.884 45.063C67.884 48.5267 65.0739 51.349 61.6251 51.349C58.1125 51.365 55.2865 48.5267 55.2865 45.063ZM89.5024 60.0563C83.6907 65.8933 67.2932 65.8933 61.4814 60.0563C60.8428 59.4951 60.8428 58.5008 61.4814 57.8594C62.0403 57.2982 63.0302 57.2982 63.589 57.8594C68.0276 62.4296 82.7487 62.5098 87.3789 57.8594C87.9377 57.2982 88.9276 57.2982 89.4865 57.8594C90.1411 58.5008 90.1411 59.4951 89.5024 60.0563ZM89.3747 51.365C85.926 51.365 83.1159 48.5427 83.1159 45.079C83.1159 41.5512 85.926 38.7129 89.3747 38.7129C92.8873 38.7129 95.7134 41.5351 95.7134 45.079C95.6974 48.5267 92.8873 51.365 89.3747 51.365Z" fill="#737373"/>
</g>
</g>
<defs>
<clipPath id="clip0_3010_28952">
<rect width="151" height="72" fill="white" transform="translate(0 0.5)"/>
</clipPath>
<clipPath id="clip1_3010_28952">
<rect width="76" height="72" fill="white" transform="translate(37.5 0.5)"/>
</clipPath>
</defs>
</svg>
