<svg width="151" height="35" viewBox="0 0 151 35" fill="none" xmlns="http://www.w3.org/2000/svg">
<g clip-path="url(#clip0_3010_28937)">
<g clip-path="url(#clip1_3010_28937)">
<path d="M46.2553 32.4249L52.4193 32.5526C50.2949 31.8183 48.2349 30.9244 46.2553 29.8709V32.4249ZM55.5414 31.5789V32.4249L52.4193 32.5526C58.2935 34.5479 63.6688 34.8193 67.66 33.7019C64.4574 33.7338 60.2891 33.2869 55.5414 31.5789ZM121.349 13.1901C123.908 13.1901 126 11.131 126 8.577C126 6.02301 123.924 4.6662 121.349 4.6662C118.79 4.6662 116.698 6.03897 116.698 8.577C116.698 11.115 118.774 13.1901 121.349 13.1901ZM116.682 32.4249H126V14.7864H116.682V32.4249ZM104.82 32.4249H114.139V1.25024L104.82 5.60799V32.4249ZM99.8314 13.3657C96.9024 10.4606 91.7202 10.6362 91.7202 10.6362C91.7202 10.6362 86.5219 10.4606 83.6089 13.3657C80.6799 16.2709 80.9052 18.777 80.9052 21.762C80.9052 24.747 80.6799 27.2371 83.6089 30.1423C86.538 33.0474 91.7202 32.8718 91.7202 32.8718C91.7202 32.8718 96.9185 33.0474 99.8314 30.1423C102.76 27.2371 102.535 24.747 102.535 21.762C102.519 18.761 102.744 16.2549 99.8314 13.3657ZM93.4261 24.8427C93.4261 25.4174 93.1364 26.838 91.7041 26.838C90.2718 26.838 89.9821 25.4174 89.9821 24.8427V18.3939C89.9821 17.0052 91.1569 16.654 91.7041 16.654C92.2513 16.654 93.4261 16.9892 93.4261 18.3939V24.8427ZM76.3346 13.3657C73.4055 10.4606 68.2233 10.6362 68.2233 10.6362C68.2233 10.6362 63.0411 10.4606 60.1121 13.3657C59.8063 13.669 59.5166 13.9883 59.2591 14.3235C53.1113 9.5986 47.5911 6.90094 42.8274 4.57043V1.2662L39.2063 2.95822C30.4513 -0.56948 24.8828 0.053056 23.5471 2.97418C23.5471 2.97418 19.5397 8.20986 33.493 20.6606V32.4249H42.8113V27.8596C41.7652 27.1892 40.7191 26.4709 39.6891 25.6887C37.3072 23.9009 35.2794 22.2409 33.5091 20.6765V15.7282C35.6174 18.0747 38.4177 20.7404 42.1032 23.7573L42.8274 24.3319V19.5751C42.8274 18.4737 43.101 16.67 44.5655 16.67C46.03 16.67 46.2714 17.7714 46.2714 19.0643V26.838C49.1683 28.7855 52.2744 30.3657 55.5575 31.5629V16.5742C55.5575 13.5892 53.401 10.6042 49.0235 10.6042C46.4807 10.5883 44.1149 11.9132 42.8274 14.1V5.4324C49.5707 8.76855 56.33 12.8549 58.905 14.7385C57.2635 17.069 57.4083 19.2239 57.4083 21.7141C57.4083 24.6991 57.183 27.1892 60.1121 30.0944C63.0411 32.9995 68.2233 32.824 68.2233 32.824C68.2233 32.824 73.4216 32.9995 76.3346 30.0944C79.2636 27.1892 79.0222 24.6991 79.0222 21.7141C79.0222 18.761 79.2636 16.2549 76.3346 13.3657ZM33.493 5.60799V15.7122C25.6553 7.01268 27.2325 3.58075 27.828 3.08592C30.0007 1.2662 33.8632 1.80893 38.1924 3.42113L33.493 5.60799ZM69.9453 24.8427C69.9453 25.4174 69.6557 26.838 68.2233 26.838C66.791 26.838 66.5013 25.4174 66.5013 24.8427V18.3939C66.5013 17.0052 67.6761 16.654 68.2233 16.654C68.7705 16.654 69.9453 16.9892 69.9453 18.3939V24.8427Z" fill="#737373"/>
</g>
</g>
<defs>
<clipPath id="clip0_3010_28937">
<rect width="153" height="34" fill="white" transform="translate(-2 0.5)"/>
</clipPath>
<clipPath id="clip1_3010_28937">
<rect width="103" height="34" fill="white" transform="translate(23 0.5)"/>
</clipPath>
</defs>
</svg>
